# xmcd
#
# Track frame offsets:
#	150
#	14468
#	26628
#	39280
#	51375
#	62849
#	75193
#	90052
#	103441
#	116494
#	129559
#	143391
#	156929
#	171383
#	185787
#	199651
#	211981
#	224168
#	237610
#	251238
#	262875
#	273850
#	286023
#	296300
#	309860
#
# Disc length: 4311 seconds
#
# Revision: 1
# Processed by: cddbd v1.5.2PL0 Copyright (c) Steve Scherf et al.
# Submitted via: EasyCDDAExtractor 12.0.0.1
#
DISCID=6910d519
DTITLE=John Lee Hooker - Detroit Blues (Blues From The Motor City 1938-54) - D
DTITLE=isc B (1952-53)
DYEAR=2004
DGENRE=Blues
TTITLE0=Cold Chills (All Over Me)
TTITLE1=Rock Me Mama
TTITLE2=It Hurts Me So
TTITLE3=I Got Eyes For You
TTITLE4=Key To The Highway
TTITLE5=Bluebird Blues
TTITLE6=It's Been A Long Time Baby
TTITLE7=Ride 'Til I Die
TTITLE8=I Tried Hard
TTITLE9=Rock House Boogie
TTITLE10=It's Stormin' And Rainin'
TTITLE11=Let's Talk It Over
TTITLE12=Cool Little Car
TTITLE13=Lookin' For A Woman
TTITLE14=Boogie Rambler
TTITLE15=No More Doggin'
TTITLE16=Love Money Can't Buy
TTITLE17=Please Take Me Back
TTITLE18=My Baby Don't Love Me
TTITLE19=Pouring Down Rain
TTITLE20=Real, Real Gone
TTITLE21=Guitar Lovin' Man
TTITLE22=Stuttering Blues
TTITLE23=Too Much Boogie
TTITLE24=Need Somebody
EXTD=
EXTT0=
EXTT1=
EXTT2=
EXTT3=
EXTT4=
EXTT5=
EXTT6=
EXTT7=
EXTT8=
EXTT9=
EXTT10=
EXTT11=
EXTT12=
EXTT13=
EXTT14=
EXTT15=
EXTT16=
EXTT17=
EXTT18=
EXTT19=
EXTT20=
EXTT21=
EXTT22=
EXTT23=
EXTT24=
PLAYORDER=
